<svg xmlns="http://www.w3.org/2000/svg" width="1600" height="900"><defs><linearGradient id="b" x1="0" x2="1" y1="0" y2="1"><stop stop-color="#07100c"/><stop offset=".6" stop-color="#0c1a14"/><stop offset="1" stop-color="#07100d"/></linearGradient><radialGradient id="g"><stop stop-color="#53e6a5" stop-opacity=".4"/><stop offset="1" stop-color="#53e6a5" stop-opacity="0"/></radialGradient></defs><rect width="1600" height="900" fill="url(#b)"/><circle cx="1290" cy="190" r="360" fill="url(#g)"/><g opacity=".11" stroke="#fff"><path d="M0 150H1600M0 300H1600M0 450H1600M0 600H1600M0 750H1600"/><path d="M200 0V900M400 0V900M600 0V900M800 0V900M1000 0V900M1200 0V900M1400 0V900"/></g><text x="100" y="130" fill="#c4d0ca" font-family="Arial,sans-serif" font-size="28" letter-spacing="5">SERA PROJECT SYSTEM</text><text x="100" y="470" fill="#fff" font-family="Arial,sans-serif" font-weight="700" font-size="92">TOOLS &amp; OPS</text><text x="100" y="545" fill="#b9c9c1" font-family="Arial,sans-serif" font-size="34">Utilities · Monitoring · Bridges · Automation</text><rect x="100" y="680" rx="28" width="220" height="58" fill="#53e6a5" fill-opacity=".14" stroke="#72ecc0"/><text x="210" y="718" text-anchor="middle" fill="#e7fff4" font-family="Arial,sans-serif" font-size="24">TOOLING</text><text x="1320" y="760" fill="#5ee6ac" font-family="Arial,sans-serif" font-weight="700" font-size="180">S</text></svg>